<svg width="192" height="192" viewBox="0 0 192 192" fill="none" xmlns="http://www.w3.org/2000/svg">
<rect width="192" height="192" rx="96" fill="white"/>
<path d="M134.112 87.8916C130.311 66.9086 112.128 51 90.212 51V67.225C97.7842 67.2357 105.043 70.2708 110.398 75.6648C115.752 81.0589 118.765 88.3717 118.775 96C118.763 103.626 115.75 110.936 110.396 116.328C105.043 121.721 97.7862 124.755 90.216 124.767V141C112.128 140.984 130.319 125.075 134.116 104.104H153V87.8794H134.116L134.112 87.8916ZM115.248 96.0041C115.255 90.0258 113.152 84.2397 109.316 79.6785C105.48 75.1172 100.159 72.0775 94.3046 71.1019C88.4498 70.1263 82.4414 71.2781 77.3515 74.352C72.2617 77.4258 68.4216 82.2216 66.5165 87.8835H39V104.108H66.5165C68.4192 109.773 72.2583 114.571 77.3483 117.648C82.4383 120.724 88.448 121.878 94.3043 120.903C100.161 119.928 105.482 116.888 109.32 112.326C113.157 107.763 115.259 101.976 115.252 95.9959L115.248 96.0041Z" fill="black"/>
</svg>
